HIERARCHY
ROOT Hips
{
	OFFSET 0.00000 0.00000 0.00000
	CHANNELS 6 Xposition Yposition Zposition Yrotation Zrotation Xrotation 
	JOINT Lumbar
	{
		OFFSET 0 0 0
		CHANNELS 3 Zrotation Xrotation Yrotation
		JOINT Neck
		{
			OFFSET 0.00 0.2701 0.00
			CHANNELS 3 Zrotation Xrotation Yrotation
			End Site
			{
				OFFSET 0.00 0.1379 0.00
			}
		}
		JOINT RightShoulder
		{
			OFFSET 0.0119 0.2289 0.1181
			CHANNELS 3 Zrotation Xrotation Yrotation
			JOINT RightElbow
			{
				OFFSET 0.00 -0.1475 0.00
				CHANNELS 2 Zrotation Yrotation
				JOINT RightWrist
				{
					OFFSET 0.00 -0.1605 0.00
					CHANNELS 2 Zrotation Xrotation
					End Site
					{
						OFFSET 0.0040 -0.1068 0.0006
					}
				}
			}
		}
		JOINT LeftShoulder
		{
			OFFSET 0.0119 0.2289 -0.1181
			CHANNELS 3 Zrotation Xrotation Yrotation
			JOINT LeftElbow
			{
				OFFSET 0.00 -0.1475 0.00
				CHANNELS 2 Zrotation Yrotation
				JOINT LeftWrist
				{
					OFFSET 0.00 -0.1605 0.00
					CHANNELS 2 Zrotation Xrotation
					End Site
					{
						OFFSET 0.0040 -0.1068 -0.0006
					}
				}
			}
		}
	}
	JOINT RightHip
	{
		OFFSET 0.0316 -0.0424 0.0458
		CHANNELS 3 Zrotation Xrotation Yrotation
		JOINT RightKnee
		{
			OFFSET 0.00 -0.2438 0.00
			CHANNELS 1 Zrotation
			JOINT RightAnkle
			{
				OFFSET 0.00 -0.2449 0.00
				CHANNELS 3 Zrotation Xrotation Yrotation
				End Site
				{
					OFFSET 0.1237 -0.0542 0.0051
				}
			}
		}
	}
	JOINT LeftHip
	{
		OFFSET 0.0316 -0.0424 -0.0458
		CHANNELS 3 Zrotation Xrotation Yrotation
		JOINT LeftKnee
		{
			OFFSET 0.00 -0.2438 0.00
			CHANNELS 1 Zrotation
			JOINT LeftAnkle
			{
				OFFSET 0.00 -0.2449 0.00
				CHANNELS 3 Zrotation Xrotation Yrotation
				End Site
				{
					OFFSET 0.1237 -0.0542 -0.0051
				}
			}
		}
	}
}
MOTION
Frames: 33
Frame Time: 0.02
-0.22229 -0.00053 -0.03364 -141.08212 -34.90486 0.31035 36.99665 5.51262 -1.57956 -27.36558 3.16542 -2.11494 -15.2973 -17.81273 -10.14519 24.85734 87.33908 5.44485 5.58261 -23.51716 22.08179 -11.11207 48.42433 -93.82707 9.78675 -0.71335 43.07795 1.40611 -16.69376 -22.13619 -6.09796 -2.39174 -3.37476 50.36325 14.30793 -2.53621 -38.63291 -8.02352 1.91025 3.23251
-0.22305 -0.00062 -0.03379 -141.22411 -35.07177 0.35156 37.06209 5.56809 -1.71551 -27.35639 3.15791 -2.11494 -15.39653 -17.85871 -9.61801 24.79734 87.32296 5.57296 5.45985 -23.47512 22.32982 -11.39032 48.58198 -93.66626 9.68075 -0.69749 43.14589 1.37564 -17.08893 -22.05853 -6.08954 -2.34514 -3.34976 50.23726 14.42111 -1.84568 -36.92517 -7.93171 1.83967 3.19198
-0.22373 -0.00071 -0.03379 -141.40964 -35.18704 0.39164 37.06528 5.60977 -1.82296 -27.35661 3.14239 -2.11495 -15.37676 -17.89978 -8.8165 24.80091 87.30003 5.75971 5.2839 -23.39593 22.64554 -11.8118 48.72303 -93.44173 9.53905 -0.67273 43.14607 1.32961 -17.4865 -21.96615 -6.08333 -2.29643 -3.32306 50.01242 14.62947 -0.89876 -35.05794 -7.83633 1.70445 3.11928
-0.22443 -0.0008 -0.03385 -141.58539 -35.32897 0.42659 37.10028 5.65909 -1.94154 -27.35141 3.1313 -2.11495 -15.41246 -17.93445 -8.1576 24.80249 87.27886 5.92055 5.13256 -23.34024 22.92045 -12.13981 48.8754 -93.26 9.42399 -0.65303 43.18226 1.2938 -17.88009 -21.88394 -6.07611 -2.248 -3.29699 49.84158 14.78563 -0.08523 -33.28956 -7.74355 1.60109 3.06249
-0.22516 -0.00088 -0.03395 -141.72245 -35.46 0.48459 37.12219 5.7034 -2.06569 -27.35074 3.11596 -2.11496 -15.44376 -18.00548 -7.41885 24.70017 87.26239 6.08545 4.97623 -23.25857 23.23582 -12.57978 49.01393 -93.02024 9.26831 -0.6282 43.20053 1.24312 -18.29248 -21.78984 -6.0687 -2.20146 -3.27107 49.63166 14.98057 0.80265 -31.39536 -7.64654 1.48641 2.99981
-0.22583 -0.00099 -0.03393 -141.94817 -35.60034 0.49526 37.15564 5.75399 -2.17304 -27.34218 3.1079 -2.11496 -15.45398 -18.00063 -6.77829 24.82512 87.23485 6.24885 4.81897 -23.22021 23.48453 -12.82731 49.17568 -92.88479 9.18427 -0.6129 43.23876 1.21971 -18.662 -21.71642 -6.06241 -2.15111 -3.24472 49.47958 15.1171 1.59404 -29.73274 -7.558 1.38039 2.94202
-0.22635 -0.00118 -0.0336 -142.41977 -35.78088 0.36738 37.23962 5.83258 -2.23103 -27.31962 3.12201 -2.11497 -15.45295 -17.77508 -6.53355 25.569 87.17849 6.4476 4.67109 -23.32584 23.5225 -12.46135 49.41657 -93.07743 9.3498 -0.61965 43.34494 1.28273 -18.93445 -21.69784 -6.05731 -2.08765 -3.21621 49.51614 15.06729 2.07279 -28.72683 -7.48793 1.3129 2.90457
-0.22681 -0.00141 -0.03315 -142.97697 -35.97194 0.19337 37.3366 5.91667 -2.27467 -27.2873 3.14366 -2.11497 -15.43181 -17.47542 -6.38864 26.53702 87.1113 6.63378 4.52487 -23.47353 23.49285 -11.90536 49.6793 -93.37887 9.58306 -0.63835 43.47362 1.37262 -19.15927 -21.70119 -6.05351 -2.02104 -3.18761 49.61369 14.95557 2.44237 -27.96561 -7.42744 1.25676 2.87342
-0.22728 -0.00161 -0.03276 -143.48641 -36.15655 0.0459 37.42508 5.99332 -2.33219 -27.25274 3.16219 -2.11497 -15.40775 -17.21773 -6.16041 27.39635 87.04919 6.78839 4.37886 -23.59162 23.50118 -11.46867 49.92459 -93.60689 9.75419 -0.65481 43.59379 1.44578 -19.39045 -21.6979 -6.05003 -1.95809 -3.16007 49.68024 14.87319 2.85078 -27.10804 -7.36644 1.19626 2.84011
-0.22779 -0.00184 -0.03237 -144.03306 -36.34623 -0.12489 37.52206 6.08998 -2.35955 -27.24581 3.17993 -2.11497 -15.42908 -16.92516 -6.07873 28.28609 86.98627 7.09697 4.2263 -23.75206 23.48211 -10.90083 50.20067 -93.90904 10.04674 -0.65417 43.70436 1.53763 -19.68494 -21.68016 -6.04282 -1.88594 -3.1283 49.7568 14.78908 3.31336 -26.18076 -7.28952 1.12986 2.80261
-0.22822 -0.00203 -0.03194 -144.52414 -36.5288 -0.25837 37.60562 6.14693 -2.44429 -27.18 3.20023 -2.11498 -15.35435 -16.68737 -5.72406 29.16585 86.9224 7.08801 4.08918 -23.83556 23.50209 -10.55542 50.41848 -94.11464 10.11508 -0.69626 43.8412 1.5969 -19.83795 -21.69783 -6.0436 -1.83185 -3.10515 49.82875 14.69261 3.63423 -25.46042 -7.24758 1.0796 2.77586
-0.22847 -0.00215 -0.03142 -144.82164 -36.6862 -0.2747 37.6453 6.08873 -2.71198 -26.94447 3.23458 -2.11498 -15.00512 -16.62234 -4.54979 29.95341 86.86011 6.14507 3.98872 -23.68955 23.65546 -10.90281 50.46626 -93.74177 9.43885 -0.81489 44.04401 1.56171 -19.59619 -21.80861 -6.06671 -1.83172 -3.10747 49.86929 14.57683 3.58593 -25.24101 -7.30425 1.06889 2.7765
-0.22865 -0.00225 -0.03084 -145.06345 -36.83655 -0.25245 37.67178 5.99121 -3.03434 -26.6518 3.26983 -2.11499 -14.56313 -16.61463 -3.10621 30.7242 86.79698 4.8936 3.90499 -23.46614 23.84845 -11.47407 50.45553 -93.30863 8.55177 -0.98114 44.27259 1.49251 -19.21635 -21.95417 -6.09771 -1.84931 -3.11818 49.9041 14.45039 3.39843 -25.22465 -7.39504 1.07472 2.788
-0.22884 -0.00235 -0.03028 -145.34337 -36.99277 -0.24962 37.70734 5.91449 -3.31778 -26.39148 3.29872 -2.11499 -14.17348 -16.57817 -1.81474 31.50934 86.73321 3.82304 3.81757 -23.2827 24.01701 -11.9209 50.47407 -93.10689 7.83706 -1.15377 44.49088 1.43754 -18.91037 -22.08347 -6.12473 -1.85657 -3.12395 49.94468 14.32849 3.27628 -25.12268 -7.46735 1.07483 2.7952
-0.22907 -0.00247 -0.02977 -145.57302 -37.13951 -0.24022 37.73132 5.82559 -3.65926 -26.10378 3.35227 -2.115 -13.74008 -16.54951 -0.40208 32.27588 86.67333 2.58172 3.71386 -23.08026 24.21032 -12.45637 50.48172 -92.10073 6.81534 -1.21765 44.70555 1.38852 -18.55691 -22.21561 -6.15347 -1.87318 -3.1344 49.97465 14.20552 3.14137 -24.9994 -7.55245 1.06791 2.80002
-0.22922 -0.00254 -0.02913 -145.8921 -37.3024 -0.235 37.77485 5.75264 -3.89414 -25.8598 3.35548 -2.11501 -13.37603 -16.52046 0.82462 33.07182 86.60536 1.62113 3.64778 -22.89873 24.36244 -12.86362 50.49826 -92.68769 6.36479 -1.5077 44.93154 1.31885 -18.26883 -22.34962 -6.18047 -1.87476 -3.13719 50.02373 14.08338 3.00176 -24.96754 -7.61901 1.07918 2.81219
-0.22916 -0.00242 -0.02816 -146.47922 -37.52668 -0.24839 37.88615 5.73319 -3.81163 -25.74949 3.2115 -2.11502 -13.22692 -16.46564 1.46033 33.97208 86.51462 1.52707 3.68392 -22.79128 24.39087 -12.85627 50.55022 -98.27199 7.69464 -2.51137 45.19986 1.19889 -18.20664 -22.48169 -6.20099 -1.8287 -3.11594 50.13395 13.96367 2.88013 -25.12123 -7.62486 1.13868 2.84294
-0.22902 -0.00225 -0.02704 -147.15647 -37.76443 -0.26752 38.01534 5.73109 -3.62173 -25.68535 3.01825 -2.11503 -13.15093 -16.4107 1.90156 34.89739 86.41595 1.72333 3.7569 -22.7077 24.377 -12.71432 50.61353 -105.36045 9.57999 -3.72359 45.47514 1.05943 -18.213 -22.61402 -6.21944 -1.76725 -3.08685 50.26191 13.84609 2.75984 -25.36218 -7.61105 1.21542 2.88048
-0.22891 -0.00211 -0.02598 -147.78708 -37.98631 -0.28542 38.12957 5.72119 -3.48755 -25.6009 2.85276 -2.11504 -13.0409 -16.36337 2.44082 35.79815 86.32134 1.77628 3.81144 -22.61483 24.38286 -12.63855 50.67401 -111.36657 11.10863 -4.77236 45.73596 0.92985 -18.18075 -22.74529 -6.2387 -1.71402 -3.06187 50.37698 13.7293 2.64132 -25.57296 -7.60695 1.283 2.91433
-0.22881 -0.00194 -0.02497 -148.43967 -38.24981 -0.29631 38.27298 5.70976 -3.32653 -25.51188 2.66471 -2.11506 -12.93041 -16.28663 2.95156 36.75581 86.22469 1.86627 3.87376 -22.5132 24.3874 -12.54874 50.72329 -119.02018 13.06166 -6.10675 46.04617 0.79496 -18.17554 -22.88201 -6.25881 -1.65618 -3.03484 50.51262 13.6041 2.50721 -25.74992 -7.60071 1.3571 2.95127
-0.22867 -0.00181 -0.02383 -149.06873 -38.429 -0.32349 38.35905 5.70587 -3.19465 -25.44375 2.51184 -2.11507 -12.84024 -16.26971 3.46843 37.59892 86.13053 1.95231 3.92839 -22.43589 24.38475 -12.45404 50.79854 -123.64294 14.27601 -6.90265 46.25383 0.66674 -18.13158 -23.0067 -6.27653 -1.60409 -3.01013 50.60929 13.49781 2.40848 -26.01662 -7.59388 1.42104 2.98304
-0.22849 -0.0018 -0.02239 -149.61001 -38.38049 -0.39601 38.29149 5.72121 -3.17373 -25.42536 2.46901 -2.11507 -12.78226 -16.4238 4.07982 38.13731 86.04444 1.95631 3.95278 -22.42554 24.36717 -12.37126 50.94997 -119.15836 13.22367 -6.09495 46.18553 0.56362 -17.96914 -23.10026 -6.28828 -1.57123 -2.99347 50.5975 13.43699 2.4006 -26.49734 -7.58952 1.4564 3.0007
-0.22827 -0.00183 -0.02084 -150.12518 -38.24558 -0.48465 38.16447 5.74324 -3.18465 -25.42609 2.4631 -2.11507 -12.74383 -16.63685 4.69742 38.55611 85.96134 1.94802 3.96811 -22.43834 24.34456 -12.28812 51.12604 -111.63947 11.42644 -4.74982 46.01252 0.46766 -17.76513 -23.18113 -6.29764 -1.54465 -2.97941 50.54539 13.39636 2.42957 -27.06612 -7.58519 1.48011 3.01253
-0.22806 -0.00183 -0.01933 -150.6527 -38.14415 -0.56485 38.05815 5.76065 -3.1781 -25.41616 2.43976 -2.11508 -12.70086 -16.81863 5.2908 39.01834 85.87734 1.94685 3.98742 -22.43701 24.32768 -12.20946 51.28645 -105.75481 10.03142 -3.69392 45.88081 0.36737 -17.57731 -23.26622 -6.30798 -1.51537 -2.9643 50.50933 13.35064 2.44752 -27.60234 -7.58113 1.50669 3.02581
-0.22788 -0.00185 -0.01785 -151.18013 -38.06573 -0.64965 37.97709 5.7853 -3.18103 -25.41606 2.41755 -2.11507 -12.64193 -17.01878 5.96679 39.5283 85.7909 1.94867 4.00842 -22.45102 24.29503 -12.10961 51.46629 -98.85145 8.3882 -2.45666 45.77372 0.27106 -17.40288 -23.35788 -6.31871 -1.48496 -2.94839 50.48296 13.28773 2.44396 -28.1124 -7.57522 1.54427 3.04447
-0.22762 -0.00186 -0.01628 -151.70182 -37.92105 -0.729 37.83162 5.79623 -3.1725 -25.39951 2.40229 -2.11509 -12.62009 -17.19539 6.47611 39.90913 85.71061 1.93817 4.02349 -22.43913 24.29429 -12.05355 51.6111 -93.32151 7.07604 -1.4652 45.59311 0.16827 -17.1902 -23.43286 -6.32809 -1.45852 -2.93483 50.42727 13.26538 2.49053 -28.69402 -7.57342 1.55577 3.05035
-0.22717 -0.00181 -0.01448 -152.20139 -37.59403 -0.78634 37.50056 5.76775 -3.13102 -25.33191 2.39836 -2.11517 -12.69429 -17.28656 6.51196 39.97083 85.64467 1.89072 4.02234 -22.34283 24.38606 -12.13667 51.65539 -92.39066 6.87326 -1.29671 45.21143 0.04716 -16.87822 -23.46437 -6.33411 -1.44215 -2.92744 50.29372 13.34925 2.69527 -29.4729 -7.58281 1.49996 3.0233
-0.22665 -0.00174 -0.01258 -152.69804 -37.20692 -0.83832 37.11064 5.72521 -3.07647 -25.24705 2.40025 -2.11526 -12.80492 -17.35325 6.38311 39.90495 85.58524 1.83091 4.01577 -22.22093 24.50995 -12.26176 51.66299 -92.92749 7.02412 -1.39081 44.76362 -0.08081 -16.52927 -23.47959 -6.3389 -1.42952 -2.9223 50.13262 13.47271 2.94319 -30.31562 -7.59628 1.4182 2.98353
-0.22615 -0.00169 -0.0107 -153.20384 -36.86093 -0.89451 36.76235 5.68889 -3.02387 -25.17048 2.39889 -2.11535 -12.89975 -17.43496 6.33812 39.89212 85.5241 1.7793 4.01281 -22.11534 24.61699 -12.35556 51.68604 -92.74229 7.00182 -1.35514 44.36176 -0.20648 -16.19978 -23.50263 -6.34438 -1.41479 -2.91594 49.98925 13.57943 3.1533 -31.11565 -7.60826 1.34659 2.94873
-0.22567 -0.00162 -0.0089 -153.67561 -36.45429 -0.94321 36.34975 5.65328 -2.98812 -25.09271 2.40106 -2.11545 -12.99276 -17.50184 6.25469 39.89635 85.45771 1.71678 4.00457 -21.99071 24.73245 -12.49823 51.71565 -92.68319 7.00654 -1.34446 43.88976 -0.32868 -15.85884 -23.52357 -6.34921 -1.40191 -2.91049 49.82501 13.68435 3.44411 -31.97951 -7.61938 1.28017 2.91653
-0.22515 -0.00157 -0.00693 -154.2181 -36.15997 -1.00677 36.05716 5.61307 -2.91507 -25.01311 2.39716 -2.11552 -13.09715 -17.5936 6.21277 39.83577 85.40385 1.67387 4.00631 -21.89952 24.83918 -12.55234 51.7219 -92.75101 7.04845 -1.35161 43.54873 -0.45953 -15.53202 -23.54506 -6.35514 -1.38606 -2.90368 49.69504 13.79869 3.57328 -32.72073 -7.63242 1.19861 2.87674
-0.2246 -0.00156 -0.00457 -154.95425 -36.19869 -1.10588 36.11716 5.56067 -2.73151 -24.93202 2.37161 -2.11554 -13.23062 -17.75492 6.32042 39.6331 85.38219 1.69026 4.03579 -21.90507 24.90411 -12.32397 51.67781 -92.81714 7.11278 -1.34276 43.59307 -0.61567 -15.26672 -23.57324 -6.3645 -1.36031 -2.8922 49.69436 13.95903 3.27567 -33.1384 -7.65715 1.06694 2.8123
-0.22401 -0.00157 -0.00205 -155.76185 -36.35159 -1.22111 36.29906 5.50453 -2.51299 -24.84964 2.34006 -2.11553 -13.373 -17.94278 6.47621 39.36958 85.37304 1.7264 4.07576 -21.94513 24.96074 -12.01013 51.61016 -92.98 7.20632 -1.34664 43.77085 -0.78008 -15.01504 -23.60238 -6.37504 -1.33151 -2.87933 49.72445 14.12198 2.80952 -33.42418 -7.68243 0.92355 2.74186
